<svg width="936" height="231" viewBox="0 0 936 231" fill="none" xmlns="http://www.w3.org/2000/svg">
<path d="M218.683 156.124H239.535V46H218.683V156.124ZM252.028 156.124H272.88V80.3413H252.028V156.124ZM262.309 70.0534C269.115 70.0534 274.328 65.1268 274.328 58.6063C274.328 52.0858 269.115 47.1592 262.309 47.1592C255.648 47.1592 250.435 52.0858 250.435 58.6063C250.435 65.1268 255.648 70.0534 262.309 70.0534ZM305.353 156.124H328.956L356.47 80.3413H336.197L318.241 134.534L300.14 80.3413H277.695L305.353 156.124ZM391.784 157.718C412.491 157.718 425.524 148.589 427.986 132.215H408.147C406.844 138.591 402.065 142.793 392.363 142.793C380.923 142.793 374.117 135.548 373.538 122.942H428.13V117.146C428.13 90.0496 410.754 78.6025 391.205 78.6025C369.194 78.6025 352.251 94.1068 352.251 118.015V119.174C352.251 143.373 368.904 157.718 391.784 157.718ZM373.828 110.046C375.421 99.3232 381.792 93.0925 391.205 93.0925C401.196 93.0925 406.989 98.5987 407.713 110.046H373.828ZM434.636 156.124H455.633V118.16C455.633 103.67 464.611 98.5987 480.106 98.7436V79.1821C467.797 79.327 460.412 84.6883 455.633 94.8313V80.3413H434.636V156.124ZM520.131 157.718C540.839 157.718 553.871 148.589 556.333 132.215H536.494C535.191 138.591 530.413 142.793 520.71 142.793C509.271 142.793 502.465 135.548 501.885 122.942H556.478V117.146C556.478 90.0496 539.101 78.6025 519.552 78.6025C497.541 78.6025 480.599 94.1068 480.599 118.015V119.174C480.599 143.373 497.252 157.718 520.131 157.718ZM502.175 110.046C503.768 99.3232 510.139 93.0925 519.552 93.0925C529.544 93.0925 535.336 98.5987 536.06 110.046H502.175ZM597.301 157.718C619.312 157.718 632.344 145.256 633.503 127.289H614.533C613.519 136.997 606.713 141.924 598.314 141.924C586.585 141.924 579.779 134.099 579.779 118.885V117.725C579.779 103.235 587.02 95.1211 597.88 95.1211C606.424 95.1211 611.782 99.1783 613.23 108.017H633.068C631.186 86.2822 614.967 78.6025 597.446 78.6025C575.869 78.6025 558.348 93.5272 558.348 118.015V119.174C558.348 143.952 575.145 157.718 597.301 157.718ZM674.792 141.779C662.917 141.779 656.256 133.085 656.256 118.595V117.436C656.256 102.946 663.207 94.5415 674.792 94.5415C686.521 94.5415 693.327 103.235 693.327 117.725V118.74C693.327 133.085 686.521 141.779 674.792 141.779ZM674.647 157.718C697.382 157.718 714.614 142.503 714.614 118.595V117.436C714.614 93.817 697.526 78.6025 674.792 78.6025C652.057 78.6025 634.825 94.1068 634.825 117.87V119.03C634.825 142.648 652.057 157.718 674.647 157.718ZM739.04 156.124H762.643L790.157 80.3413H769.884L751.928 134.534L733.827 80.3413H711.382L739.04 156.124ZM825.471 157.718C846.178 157.718 859.211 148.589 861.673 132.215H841.834C840.531 138.591 835.752 142.793 826.05 142.793C814.61 142.793 807.804 135.548 807.225 122.942H861.817V117.146C861.817 90.0496 844.441 78.6025 824.892 78.6025C802.881 78.6025 785.938 94.1068 785.938 118.015V119.174C785.938 143.373 802.591 157.718 825.471 157.718ZM807.515 110.046C809.108 99.3232 815.479 93.0925 824.892 93.0925C834.883 93.0925 840.675 98.5987 841.4 110.046H807.515ZM868.321 156.124H889.318V118.16C889.318 103.67 898.296 98.5987 913.791 98.7436V79.1821C901.482 79.327 894.097 84.6883 889.318 94.8313V80.3413H868.321V156.124Z" fill="black"/>
<path d="M23 84.5793C23 81.3491 25.5431 78.8043 28.7713 78.8043H54.165C57.3934 78.8043 59.9363 81.3491 59.9363 84.5793C59.9363 87.8097 57.3934 90.3543 54.165 90.3543H28.7713C25.5431 90.3543 23 87.8097 23 84.5793ZM28.7713 113.454H54.165C57.3934 113.454 59.9363 110.91 59.9363 107.679C59.9363 104.449 57.3934 101.904 54.165 101.904H28.7713C25.5431 101.904 23 104.449 23 107.679C23 110.91 25.5431 113.454 28.7713 113.454ZM23 130.779C23 134.01 25.5431 136.554 28.7713 136.554H54.165C57.3934 136.554 59.9363 134.01 59.9363 130.779C59.9363 127.549 57.3934 125.004 54.165 125.004H28.7713C25.5431 125.004 23 127.54 23 130.779ZM151.358 146.02H116.731L100.571 162.19C98.9568 163.805 96.1885 162.65 96.1885 160.34V145.785H83.4916C76.5661 145.785 70.7948 140.245 70.7948 133.08L70.7857 82.0341C70.7857 75.1041 76.3224 69.3291 83.4826 69.3291H151.584C158.509 69.3291 164.281 74.8693 164.281 82.0341V133.314C163.821 140.244 158.284 146.019 151.358 146.019V146.02ZM105.874 107.679C105.874 104.674 103.331 102.138 100.337 102.138C97.3339 102.138 94.8002 104.683 94.8002 107.679C94.8002 110.684 97.3432 113.219 100.337 113.219C103.565 113.219 105.874 110.683 105.874 107.679ZM122.728 107.679C122.728 104.674 120.185 102.138 117.191 102.138C114.188 102.138 111.654 104.683 111.654 107.679C111.654 110.684 114.197 113.219 117.191 113.219C120.194 113.219 122.728 110.683 122.728 107.679ZM139.582 107.679C139.582 104.674 137.039 102.138 134.045 102.138C131.042 102.138 128.508 104.683 128.508 107.679C128.508 110.684 131.051 113.219 134.045 113.219C137.039 113.219 139.582 110.683 139.582 107.679Z" fill="black"/>
</svg>
